<svg xmlns="http://www.w3.org/2000/svg" xmlns:xlink="http://www.w3.org/1999/xlink" version="1.1" width="256" height="256" viewBox="0 0 256 256" xml:space="preserve">

<defs>
</defs>
<g style="stroke: none; stroke-width: 0; stroke-dasharray: none; stroke-linecap: butt; stroke-linejoin: miter; stroke-miterlimit: 10; fill: none; fill-rule: nonzero; opacity: 1;" transform="translate(1.4065934065934016 1.4065934065934016) scale(2.81 2.81)" >
	<path d="M 41.242 69.371 l -8.953 8.954 c -0.288 0.287 -0.627 0.331 -0.803 0.331 c -0.176 0 -0.515 -0.044 -0.803 -0.332 L 11.676 59.317 c -0.443 -0.443 -0.443 -1.163 0 -1.606 l 24.98 -24.98 c 0.288 -0.288 0.626 -0.331 0.802 -0.331 h 0 c 0.176 0 0.515 0.043 0.803 0.331 l 16.362 16.362 l 8.025 -8.025 L 46.287 24.707 c -4.869 -4.869 -12.789 -4.868 -17.657 0 L 3.65 49.686 c -4.867 4.868 -4.867 12.789 0 17.656 l 19.007 19.007 c 2.434 2.434 5.631 3.65 8.828 3.65 c 3.197 0 6.394 -1.217 8.827 -3.65 l 13.961 -13.961 C 50.063 74.716 46.357 73.631 41.242 69.371 z" style="stroke: none; stroke-width: 1; stroke-dasharray: none; stroke-linecap: butt; stroke-linejoin: miter; stroke-miterlimit: 10; fill: rgb(0,0,0); fill-rule: nonzero; opacity: 1;" transform=" matrix(1 0 0 1 0 0) " stroke-linecap="round" />
	<path d="M 48.758 20.629 l 8.953 -8.954 c 0.288 -0.287 0.627 -0.331 0.803 -0.331 c 0.176 0 0.515 0.044 0.803 0.332 l 19.007 19.007 c 0.443 0.443 0.443 1.163 0 1.606 l -24.98 24.98 c -0.288 0.288 -0.626 0.331 -0.802 0.331 h 0 c -0.176 0 -0.515 -0.043 -0.803 -0.331 L 35.377 40.907 l -8.025 8.025 l 16.362 16.361 c 4.869 4.869 12.789 4.868 17.657 0 l 24.98 -24.979 c 4.867 -4.868 4.867 -12.789 0 -17.656 L 67.342 3.651 C 64.908 1.217 61.711 0 58.514 0 c -3.197 0 -6.394 1.217 -8.827 3.65 L 35.725 17.611 C 39.937 15.284 43.643 16.369 48.758 20.629 z" style="stroke: none; stroke-width: 1; stroke-dasharray: none; stroke-linecap: butt; stroke-linejoin: miter; stroke-miterlimit: 10; fill: rgb(0,0,0); fill-rule: nonzero; opacity: 1;" transform=" matrix(1 0 0 1 0 0) " stroke-linecap="round" />
</g>
</svg>