<svg width="34" height="34" viewBox="0 0 34 34" fill="none" xmlns="http://www.w3.org/2000/svg">
<path d="M16.9556 0C7.63002 0 0 7.63002 0 16.9556C0 26.2812 7.63002 33.9112 16.9556 33.9112C26.2812 33.9112 33.9112 26.2812 33.9112 16.9556C33.9112 7.63002 26.2812 0 16.9556 0ZM16.9556 4.2389C23.9922 4.2389 29.6723 9.91903 29.6723 16.9556C29.6723 23.9922 23.9922 29.6723 16.9556 29.6723C9.91903 29.6723 4.2389 23.9922 4.2389 16.9556C4.2389 9.91903 9.91903 4.2389 16.9556 4.2389ZM25.4334 8.4778L12.7167 12.7167L8.4778 25.4334L21.1945 21.1945L25.4334 8.4778ZM16.9556 14.8362C18.1425 14.8362 19.0751 15.7687 19.0751 16.9556C19.0751 18.1425 18.1425 19.0751 16.9556 19.0751C15.7687 19.0751 14.8362 18.1425 14.8362 16.9556C14.8362 15.7687 15.7687 14.8362 16.9556 14.8362Z" fill="black"/>
</svg>
