<svg width="32" height="27" viewBox="0 0 32 27" fill="none" xmlns="http://www.w3.org/2000/svg">
<path d="M7.91789 0C5.74047 0 3.80059 0.910557 2.33578 2.33578C0.910557 3.761 0 5.70088 0 7.91789C0 10.0953 0.910557 12.0352 2.33578 13.5L15.8358 27L29.3358 13.5C30.761 12.0748 31.6716 10.1349 31.6716 7.91789C31.6716 5.74047 30.761 3.80059 29.3358 2.33578C27.9106 0.910557 25.9707 0 23.7537 0C21.5762 0 19.6364 0.910557 18.1716 2.33578C16.7463 3.761 15.8358 5.70088 15.8358 7.91789C15.8358 5.74047 14.9252 3.80059 13.5 2.33578C12.0748 0.910557 10.1349 0 7.91789 0Z" fill="#AFAFAF"/>
</svg>
