<svg width="12" height="24" viewBox="0 0 12 24" fill="none" xmlns="http://www.w3.org/2000/svg">
<path d="M8.9775 0C7.33162 0 5.985 1.34662 5.985 2.9925C5.985 4.63838 7.33162 5.985 8.9775 5.985C10.6234 5.985 11.97 4.63838 11.97 2.9925C11.97 1.34662 10.6234 0 8.9775 0ZM4.48875 7.48125C2.00498 7.48125 0 9.48623 0 11.97H2.9925C2.9925 11.1321 3.65085 10.4738 4.48875 10.4738C5.32665 10.4738 5.985 11.1321 5.985 11.97C5.985 12.8079 2.9925 16.8777 2.9925 19.4513C2.9925 22.0248 4.99748 23.94 7.48125 23.94C9.96502 23.94 11.97 21.935 11.97 19.4513H8.9775C8.9775 20.2892 8.31915 20.9475 7.48125 20.9475C6.64335 20.9475 5.985 20.2892 5.985 19.4513C5.985 18.374 8.9775 13.9451 8.9775 11.97C8.9775 9.54607 6.97253 7.48125 4.48875 7.48125Z" fill="black"/>
</svg>
