<svg xmlns="http://www.w3.org/2000/svg" xmlns:xlink="http://www.w3.org/1999/xlink" version="1.1" width="256" height="256" viewBox="0 0 256 256" xml:space="preserve">

<defs>
</defs>
<g style="stroke: none; stroke-width: 0; stroke-dasharray: none; stroke-linecap: butt; stroke-linejoin: miter; stroke-miterlimit: 10; fill: none; fill-rule: nonzero; opacity: 1;" transform="translate(1.4065934065934016 1.4065934065934016) scale(2.81 2.81)" >
	<circle cx="45" cy="45" r="45" style="stroke: none; stroke-width: 1; stroke-dasharray: none; stroke-linecap: butt; stroke-linejoin: miter; stroke-miterlimit: 10; fill: rgb(32,196,203); fill-rule: nonzero; opacity: 1;" transform="  matrix(1 0 0 1 0 0) "/>
	<path d="M 35.04 72.901 l 31.014 -31.014 c -6.144 -6.144 -15.097 -7.837 -22.817 -5.129 L 37.76 31.28 c 0.702 -4.798 -0.765 -9.859 -4.437 -13.531 L 10.901 40.169 c 3.672 3.672 8.734 5.139 13.531 4.437 l 5.478 5.478 C 27.203 57.804 28.896 66.757 35.04 72.901 z" style="stroke: none; stroke-width: 1; stroke-dasharray: none; stroke-linecap: butt; stroke-linejoin: miter; stroke-miterlimit: 10; fill: rgb(27,167,173); fill-rule: nonzero; opacity: 1;" transform=" matrix(1 0 0 1 0 0) " stroke-linecap="round" />
	<path d="M 42.12 48.967 c 0.489 0.034 0.935 0.112 1.404 0.166 l 1.332 0.238 c 0.883 0.164 1.725 0.369 2.547 0.593 c 1.004 1.089 2.082 2.105 3.119 3.162 l 6.281 6.281 l 6.281 6.281 l 3.141 3.141 c 0.402 1.692 0.824 3.364 1.019 5.262 c -1.898 -0.196 -3.57 -0.617 -5.262 -1.019 l -3.141 -3.141 l -6.281 -6.281 l -6.281 -6.281 c -1.056 -1.037 -2.073 -2.115 -3.162 -3.119 c -0.225 -0.822 -0.43 -1.664 -0.593 -2.547 l -0.238 -1.332 C 42.232 49.902 42.154 49.456 42.12 48.967 z" style="stroke: none; stroke-width: 1; stroke-dasharray: none; stroke-linecap: butt; stroke-linejoin: miter; stroke-miterlimit: 10; fill: rgb(27,167,173); fill-rule: nonzero; opacity: 1;" transform=" matrix(1 0 0 1 0 0) " stroke-linecap="round" />
	<path d="M 38.696 69.245 L 69.711 38.23 c -6.144 -6.144 -15.097 -7.837 -22.817 -5.129 l -5.478 -5.478 c 0.702 -4.798 -0.765 -9.859 -4.437 -13.531 L 14.558 36.513 c 3.672 3.672 8.734 5.139 13.531 4.437 l 5.478 5.478 C 30.859 54.147 32.552 63.101 38.696 69.245 z" style="stroke: none; stroke-width: 1; stroke-dasharray: none; stroke-linecap: butt; stroke-linejoin: miter; stroke-miterlimit: 10; fill: rgb(255,255,255); fill-rule: nonzero; opacity: 1;" transform=" matrix(1 0 0 1 0 0) " stroke-linecap="round" />
	<path d="M 45.776 45.31 c 0.489 0.034 0.935 0.112 1.404 0.166 l 1.332 0.238 c 0.883 0.164 1.725 0.369 2.547 0.593 c 1.004 1.089 2.082 2.105 3.119 3.162 l 6.281 6.281 l 6.281 6.281 l 3.141 3.141 c 0.402 1.692 0.824 3.364 1.019 5.262 c -1.898 -0.196 -3.57 -0.618 -5.262 -1.019 l -3.141 -3.141 l -6.281 -6.281 l -6.281 -6.281 c -1.056 -1.037 -2.073 -2.115 -3.162 -3.119 c -0.225 -0.822 -0.43 -1.664 -0.593 -2.547 l -0.238 -1.332 C 45.888 46.245 45.81 45.8 45.776 45.31 z" style="stroke: none; stroke-width: 1; stroke-dasharray: none; stroke-linecap: butt; stroke-linejoin: miter; stroke-miterlimit: 10; fill: rgb(255,255,255); fill-rule: nonzero; opacity: 1;" transform=" matrix(1 0 0 1 0 0) " stroke-linecap="round" />
</g>
</svg>